<svg xmlns="http://www.w3.org/2000/svg" xmlns:xlink="http://www.w3.org/1999/xlink" width="375" viewBox="0 0 375 375" height="375" version="1.0"><defs><g id="a"><path d="M 12.75 -8.40625 C 12.3125 -7.875 11.679688 -7.453125 10.859375 -7.140625 C 10.035156 -6.828125 9.070312 -6.671875 7.96875 -6.671875 L 5.1875 -6.671875 L 5.1875 0 L 1.796875 0 L 1.796875 -16.75 L 7.96875 -16.75 C 9.90625 -16.75 11.394531 -16.265625 12.4375 -15.296875 C 13.488281 -14.328125 14.015625 -13.1875 14.015625 -11.875 C 14.015625 -10.5625 13.59375 -9.40625 12.75 -8.40625 Z M 5.1875 -9.265625 L 7.96875 -9.265625 C 8.8125 -9.265625 9.457031 -9.484375 9.90625 -9.921875 C 10.351562 -10.359375 10.578125 -10.953125 10.578125 -11.703125 C 10.578125 -12.460938 10.351562 -13.0625 9.90625 -13.5 C 9.457031 -13.9375 8.8125 -14.15625 7.96875 -14.15625 L 5.1875 -14.15625 Z M 5.1875 -9.265625"/></g><g id="b"><path d="M 12.765625 -16.796875 L 16.15625 -16.796875 L 16.15625 0 L 12.765625 0 L 5.1875 -11.609375 L 5.1875 0 L 1.796875 0 L 1.796875 -16.796875 L 5.1875 -16.796875 L 12.765625 -5.1875 Z M 12.765625 -16.796875"/></g><g id="c"><path d="M 20.546875 -16.75 L 24.171875 -16.75 L 19.3125 0 L 15.484375 0 L 12.234375 -11.6875 L 8.90625 0 L 5.0625 0 L 0.3125 -16.75 L 3.90625 -16.75 L 7.125 -3.8125 L 10.515625 -16.75 L 14.328125 -16.75 L 17.515625 -3.9375 Z M 20.546875 -16.75"/></g><g id="e"><path d="M 1.796875 -16.75 L 5.1875 -16.75 L 5.1875 -2.5625 L 10.5625 -2.5625 L 10.5625 0 L 1.796875 0 Z M 1.796875 -16.75"/></g><g id="f"><path d="M 1.75 -6.4375 L 1.75 -16.75 L 5.140625 -16.75 L 5.140625 -6.4375 C 5.140625 -5.28125 5.429688 -4.40625 6.015625 -3.8125 C 6.597656 -3.21875 7.429688 -2.921875 8.515625 -2.921875 C 9.609375 -2.921875 10.445312 -3.21875 11.03125 -3.8125 C 11.625 -4.40625 11.921875 -5.28125 11.921875 -6.4375 L 11.921875 -16.75 L 15.28125 -16.75 L 15.28125 -6.4375 C 15.28125 -4.320312 14.613281 -2.691406 13.28125 -1.546875 C 11.957031 -0.398438 10.34375 0.171875 8.4375 0.171875 C 6.539062 0.171875 4.953125 -0.394531 3.671875 -1.53125 C 2.390625 -2.664062 1.75 -4.300781 1.75 -6.4375 Z M 1.75 -6.4375"/></g><g id="g"><path d="M 15.5 -16.75 L 10.265625 -8.375 L 15.5 0 L 11.6875 0 L 8.234375 -5.515625 L 5.015625 0 L 1.203125 0 L 6.453125 -8.375 L 1.203125 -16.75 L 5.015625 -16.75 L 8.46875 -11.234375 L 11.71875 -16.75 Z M 15.5 -16.75"/></g><g id="h"><path d="M 5.1875 -6.671875 L 5.1875 0 L 1.796875 0 L 1.796875 -16.75 L 7.96875 -16.75 C 9.90625 -16.75 11.394531 -16.265625 12.4375 -15.296875 C 13.488281 -14.328125 14.015625 -13.132812 14.015625 -11.71875 C 14.015625 -10.65625 13.691406 -9.664062 13.046875 -8.75 C 12.410156 -7.84375 11.40625 -7.222656 10.03125 -6.890625 L 14.296875 0 L 10.296875 0 L 6.28125 -6.671875 Z M 5.1875 -14.15625 L 5.1875 -9.265625 L 7.96875 -9.265625 C 8.8125 -9.265625 9.457031 -9.484375 9.90625 -9.921875 C 10.351562 -10.359375 10.578125 -10.953125 10.578125 -11.703125 C 10.578125 -12.460938 10.351562 -13.0625 9.90625 -13.5 C 9.457031 -13.9375 8.8125 -14.15625 7.96875 -14.15625 Z M 5.1875 -14.15625"/></g><g id="i"><path d="M 9.40625 0 L 6.03125 0 L 6.03125 -5.765625 L 0.359375 -16.75 L 4.15625 -16.75 L 7.734375 -8.859375 L 11.28125 -16.75 L 15.078125 -16.75 L 9.40625 -5.765625 Z M 9.40625 0"/></g><g id="j"><path d="M 12.390625 -16.75 L 15.765625 -16.75 L 15.765625 0 L 12.390625 0 L 12.390625 -7.171875 L 5.1875 -7.171875 L 5.1875 0 L 1.796875 0 L 1.796875 -16.75 L 5.1875 -16.75 L 5.1875 -9.765625 L 12.390625 -9.765625 Z M 12.390625 -16.75"/></g><g id="k"><path d="M 13.125 -4.421875 C 14.070312 -5.421875 14.546875 -6.753906 14.546875 -8.421875 C 14.546875 -10.085938 14.070312 -11.414062 13.125 -12.40625 C 12.1875 -13.394531 10.957031 -13.890625 9.4375 -13.890625 C 7.914062 -13.890625 6.675781 -13.390625 5.71875 -12.390625 C 4.769531 -11.390625 4.296875 -10.0625 4.296875 -8.40625 C 4.296875 -6.75 4.769531 -5.421875 5.71875 -4.421875 C 6.675781 -3.421875 7.914062 -2.921875 9.4375 -2.921875 C 10.957031 -2.921875 12.1875 -3.421875 13.125 -4.421875 Z M 9.4375 0.171875 C 7.019531 0.171875 4.984375 -0.632812 3.328125 -2.25 C 1.679688 -3.875 0.859375 -5.925781 0.859375 -8.40625 C 0.859375 -10.894531 1.6875 -12.945312 3.34375 -14.5625 C 5 -16.175781 7.03125 -16.984375 9.4375 -16.984375 C 11.851562 -16.984375 13.882812 -16.175781 15.53125 -14.5625 C 17.175781 -12.945312 18 -10.894531 18 -8.40625 C 18 -5.925781 17.175781 -3.875 15.53125 -2.25 C 13.882812 -0.632812 11.851562 0.171875 9.4375 0.171875 Z M 9.4375 0.171875"/></g><g id="l"><path d="M 20.0625 -16.75 L 20.0625 0 L 16.703125 0 L 16.703125 -10.578125 L 12.140625 0 L 9.71875 0 L 5.1875 -10.53125 L 5.1875 0 L 1.796875 0 L 1.796875 -16.75 L 5.5625 -16.75 L 10.9375 -4.34375 L 16.3125 -16.75 Z M 20.0625 -16.75"/></g><g id="m"><path d="M 11.46875 -16.796875 L 11.46875 -14.203125 L 5.1875 -14.203125 L 5.1875 -9.8125 L 10.75 -9.8125 L 10.75 -7.21875 L 5.1875 -7.21875 L 5.1875 -2.59375 L 11.46875 -2.59375 L 11.46875 0 L 1.796875 0 L 1.796875 -16.796875 Z M 11.46875 -16.796875"/></g><g id="n"><path d="M 7.21875 -14.28125 C 6.550781 -14.28125 6.003906 -14.109375 5.578125 -13.765625 C 5.148438 -13.421875 4.9375 -12.941406 4.9375 -12.328125 C 4.9375 -11.722656 5.09375 -11.25 5.40625 -10.90625 C 5.71875 -10.5625 6.128906 -10.296875 6.640625 -10.109375 C 7.160156 -9.929688 7.722656 -9.769531 8.328125 -9.625 C 8.929688 -9.476562 9.535156 -9.300781 10.140625 -9.09375 C 10.753906 -8.882812 11.316406 -8.628906 11.828125 -8.328125 C 12.335938 -8.023438 12.75 -7.582031 13.0625 -7 C 13.375 -6.414062 13.53125 -5.707031 13.53125 -4.875 C 13.53125 -3.5 12.984375 -2.3125 11.890625 -1.3125 C 10.796875 -0.320312 9.335938 0.171875 7.515625 0.171875 C 5.703125 0.171875 4.234375 -0.253906 3.109375 -1.109375 C 1.992188 -1.972656 1.4375 -3.179688 1.4375 -4.734375 L 5.046875 -4.734375 C 5.171875 -3.253906 6.007812 -2.515625 7.5625 -2.515625 C 8.332031 -2.515625 8.941406 -2.710938 9.390625 -3.109375 C 9.835938 -3.515625 10.0625 -4.050781 10.0625 -4.71875 C 10.0625 -5.382812 9.765625 -5.90625 9.171875 -6.28125 C 8.578125 -6.664062 7.859375 -6.953125 7.015625 -7.140625 C 6.179688 -7.335938 5.335938 -7.570312 4.484375 -7.84375 C 3.640625 -8.113281 2.921875 -8.585938 2.328125 -9.265625 C 1.734375 -9.953125 1.4375 -10.851562 1.4375 -11.96875 C 1.4375 -13.488281 1.988281 -14.703125 3.09375 -15.609375 C 4.195312 -16.523438 5.613281 -16.984375 7.34375 -16.984375 C 9.082031 -16.984375 10.476562 -16.585938 11.53125 -15.796875 C 12.59375 -15.003906 13.171875 -13.800781 13.265625 -12.1875 L 9.578125 -12.1875 C 9.515625 -12.832031 9.273438 -13.34375 8.859375 -13.71875 C 8.441406 -14.09375 7.894531 -14.28125 7.21875 -14.28125 Z M 7.21875 -14.28125"/></g><g id="o"><path d="M 2.265625 -3.390625 L 2.265625 0 L 0.90625 0 L 0.90625 -8.34375 L 3.78125 -8.34375 C 4.726562 -8.34375 5.457031 -8.109375 5.96875 -7.640625 C 6.476562 -7.171875 6.734375 -6.578125 6.734375 -5.859375 C 6.734375 -5.296875 6.5625 -4.789062 6.21875 -4.34375 C 5.882812 -3.894531 5.363281 -3.601562 4.65625 -3.46875 L 6.859375 0 L 5.203125 0 L 3.109375 -3.390625 Z M 2.265625 -7.265625 L 2.265625 -4.453125 L 3.78125 -4.453125 C 4.300781 -4.453125 4.6875 -4.578125 4.9375 -4.828125 C 5.195312 -5.078125 5.328125 -5.421875 5.328125 -5.859375 C 5.328125 -6.304688 5.195312 -6.648438 4.9375 -6.890625 C 4.6875 -7.140625 4.300781 -7.265625 3.78125 -7.265625 Z M 2.265625 -7.265625"/></g><g id="p"><path d="M 5.515625 -8.359375 L 5.515625 -7.28125 L 2.265625 -7.28125 L 2.265625 -4.75 L 5.140625 -4.75 L 5.140625 -3.703125 L 2.265625 -3.703125 L 2.265625 -1.0625 L 5.515625 -1.0625 L 5.515625 0 L 0.90625 0 L 0.90625 -8.359375 Z M 5.515625 -8.359375"/></g><g id="q"><path d="M 6.53125 0 L 5.921875 -1.703125 L 2.4375 -1.703125 L 1.84375 0 L 0.40625 0 L 3.390625 -8.359375 L 4.984375 -8.359375 L 7.96875 0 Z M 2.8125 -2.765625 L 5.5625 -2.765625 L 4.1875 -6.703125 Z M 2.8125 -2.765625"/></g><g id="r"><path d="M 0.90625 -8.34375 L 2.265625 -8.34375 L 2.265625 -1.046875 L 5.09375 -1.046875 L 5.09375 0 L 0.90625 0 Z M 0.90625 -8.34375"/></g><g id="t"><path d="M 3.484375 -7.328125 C 3.078125 -7.328125 2.742188 -7.222656 2.484375 -7.015625 C 2.234375 -6.804688 2.109375 -6.503906 2.109375 -6.109375 C 2.109375 -5.710938 2.257812 -5.410156 2.5625 -5.203125 C 2.875 -4.992188 3.242188 -4.84375 3.671875 -4.75 C 4.097656 -4.65625 4.523438 -4.546875 4.953125 -4.421875 C 5.390625 -4.296875 5.757812 -4.066406 6.0625 -3.734375 C 6.375 -3.398438 6.53125 -2.921875 6.53125 -2.296875 C 6.53125 -1.679688 6.269531 -1.128906 5.75 -0.640625 C 5.226562 -0.160156 4.53125 0.078125 3.65625 0.078125 C 2.789062 0.078125 2.082031 -0.125 1.53125 -0.53125 C 0.988281 -0.9375 0.71875 -1.5 0.71875 -2.21875 L 2.1875 -2.21875 C 2.21875 -1.851562 2.351562 -1.5625 2.59375 -1.34375 C 2.832031 -1.125 3.179688 -1.015625 3.640625 -1.015625 C 4.109375 -1.015625 4.472656 -1.132812 4.734375 -1.375 C 5.003906 -1.613281 5.140625 -1.894531 5.140625 -2.21875 C 5.140625 -2.550781 5.054688 -2.8125 4.890625 -3 C 4.734375 -3.1875 4.523438 -3.320312 4.265625 -3.40625 C 4.003906 -3.5 3.71875 -3.582031 3.40625 -3.65625 C 3.09375 -3.726562 2.773438 -3.8125 2.453125 -3.90625 C 2.140625 -4.007812 1.851562 -4.132812 1.59375 -4.28125 C 1.34375 -4.4375 1.132812 -4.660156 0.96875 -4.953125 C 0.800781 -5.242188 0.71875 -5.601562 0.71875 -6.03125 C 0.71875 -6.75 0.976562 -7.332031 1.5 -7.78125 C 2.03125 -8.226562 2.710938 -8.453125 3.546875 -8.453125 C 4.378906 -8.453125 5.046875 -8.257812 5.546875 -7.875 C 6.046875 -7.488281 6.328125 -6.929688 6.390625 -6.203125 L 4.875 -6.203125 C 4.84375 -6.523438 4.707031 -6.789062 4.46875 -7 C 4.226562 -7.21875 3.898438 -7.328125 3.484375 -7.328125 Z M 3.484375 -7.328125"/></g><g id="u"><path d="M 0.46875 -7.265625 L 0.46875 -8.34375 L 6.28125 -8.34375 L 6.28125 -7.265625 L 4.0625 -7.265625 L 4.0625 0 L 2.703125 0 L 2.703125 -7.265625 Z M 0.46875 -7.265625"/></g><clipPath id="v"><path d="M 160 183 L 231 183 L 231 220.828125 L 160 220.828125 Z M 160 183"/></clipPath><clipPath id="w"><path d="M 144 151 L 183 151 L 183 220.828125 L 144 220.828125 Z M 144 151"/></clipPath><clipPath id="x"><path d="M 128.4375 91.828125 L 246.9375 91.828125 L 246.9375 220.828125 L 128.4375 220.828125 Z M 128.4375 91.828125"/></clipPath></defs><g fill="#FFF"><use x="53.112" y="256.922" xmlns:xlink="http://www.w3.org/1999/xlink" xlink:href="#a" xlink:type="simple" xlink:actuate="onLoad" xlink:show="embed"/></g><g fill="#FFF"><use x="69.072" y="256.922" xmlns:xlink="http://www.w3.org/1999/xlink" xlink:href="#b" xlink:type="simple" xlink:actuate="onLoad" xlink:show="embed"/></g><g fill="#FFF"><use x="88.224" y="256.922" xmlns:xlink="http://www.w3.org/1999/xlink" xlink:href="#c" xlink:type="simple" xlink:actuate="onLoad" xlink:show="embed"/></g><g fill="#FFF"><use x="113.904" y="256.922" xmlns:xlink="http://www.w3.org/1999/xlink" xlink:href="#d" xlink:type="simple" xlink:actuate="onLoad" xlink:show="embed"/></g><g fill="#FFF"><use x="122.304" y="256.922" xmlns:xlink="http://www.w3.org/1999/xlink" xlink:href="#e" xlink:type="simple" xlink:actuate="onLoad" xlink:show="embed"/></g><g fill="#FFF"><use x="134.544" y="256.922" xmlns:xlink="http://www.w3.org/1999/xlink" xlink:href="#f" xlink:type="simple" xlink:actuate="onLoad" xlink:show="embed"/></g><g fill="#FFF"><use x="152.76" y="256.922" xmlns:xlink="http://www.w3.org/1999/xlink" xlink:href="#g" xlink:type="simple" xlink:actuate="onLoad" xlink:show="embed"/></g><g fill="#FFF"><use x="170.664" y="256.922" xmlns:xlink="http://www.w3.org/1999/xlink" xlink:href="#f" xlink:type="simple" xlink:actuate="onLoad" xlink:show="embed"/></g><g fill="#FFF"><use x="188.88" y="256.922" xmlns:xlink="http://www.w3.org/1999/xlink" xlink:href="#h" xlink:type="simple" xlink:actuate="onLoad" xlink:show="embed"/></g><g fill="#FFF"><use x="205.656" y="256.922" xmlns:xlink="http://www.w3.org/1999/xlink" xlink:href="#i" xlink:type="simple" xlink:actuate="onLoad" xlink:show="embed"/></g><g fill="#FFF"><use x="222.288" y="256.922" xmlns:xlink="http://www.w3.org/1999/xlink" xlink:href="#d" xlink:type="simple" xlink:actuate="onLoad" xlink:show="embed"/></g><g fill="#FFF"><use x="230.688" y="256.922" xmlns:xlink="http://www.w3.org/1999/xlink" xlink:href="#j" xlink:type="simple" xlink:actuate="onLoad" xlink:show="embed"/></g><g fill="#FFF"><use x="249.456" y="256.922" xmlns:xlink="http://www.w3.org/1999/xlink" xlink:href="#k" xlink:type="simple" xlink:actuate="onLoad" xlink:show="embed"/></g><g fill="#FFF"><use x="269.52" y="256.922" xmlns:xlink="http://www.w3.org/1999/xlink" xlink:href="#l" xlink:type="simple" xlink:actuate="onLoad" xlink:show="embed"/></g><g fill="#FFF"><use x="292.584" y="256.922" xmlns:xlink="http://www.w3.org/1999/xlink" xlink:href="#m" xlink:type="simple" xlink:actuate="onLoad" xlink:show="embed"/></g><g fill="#FFF"><use x="306.912" y="256.922" xmlns:xlink="http://www.w3.org/1999/xlink" xlink:href="#n" xlink:type="simple" xlink:actuate="onLoad" xlink:show="embed"/></g><g fill="#FFF"><use x="133.658" y="279.722" xmlns:xlink="http://www.w3.org/1999/xlink" xlink:href="#o" xlink:type="simple" xlink:actuate="onLoad" xlink:show="embed"/></g><g fill="#FFF"><use x="144.722" y="279.722" xmlns:xlink="http://www.w3.org/1999/xlink" xlink:href="#p" xlink:type="simple" xlink:actuate="onLoad" xlink:show="embed"/></g><g fill="#FFF"><use x="154.49" y="279.722" xmlns:xlink="http://www.w3.org/1999/xlink" xlink:href="#q" xlink:type="simple" xlink:actuate="onLoad" xlink:show="embed"/></g><g fill="#FFF"><use x="166.334" y="279.722" xmlns:xlink="http://www.w3.org/1999/xlink" xlink:href="#r" xlink:type="simple" xlink:actuate="onLoad" xlink:show="embed"/></g><g fill="#FFF"><use x="175.142" y="279.722" xmlns:xlink="http://www.w3.org/1999/xlink" xlink:href="#s" xlink:type="simple" xlink:actuate="onLoad" xlink:show="embed"/></g><g fill="#FFF"><use x="182.222" y="279.722" xmlns:xlink="http://www.w3.org/1999/xlink" xlink:href="#p" xlink:type="simple" xlink:actuate="onLoad" xlink:show="embed"/></g><g fill="#FFF"><use x="191.99" y="279.722" xmlns:xlink="http://www.w3.org/1999/xlink" xlink:href="#t" xlink:type="simple" xlink:actuate="onLoad" xlink:show="embed"/></g><g fill="#FFF"><use x="202.718" y="279.722" xmlns:xlink="http://www.w3.org/1999/xlink" xlink:href="#u" xlink:type="simple" xlink:actuate="onLoad" xlink:show="embed"/></g><g fill="#FFF"><use x="212.966" y="279.722" xmlns:xlink="http://www.w3.org/1999/xlink" xlink:href="#q" xlink:type="simple" xlink:actuate="onLoad" xlink:show="embed"/></g><g fill="#FFF"><use x="224.81" y="279.722" xmlns:xlink="http://www.w3.org/1999/xlink" xlink:href="#u" xlink:type="simple" xlink:actuate="onLoad" xlink:show="embed"/></g><g fill="#FFF"><use x="235.058" y="279.722" xmlns:xlink="http://www.w3.org/1999/xlink" xlink:href="#p" xlink:type="simple" xlink:actuate="onLoad" xlink:show="embed"/></g><g clip-path="url(#v)"><path fill="#D9D9D9" d="M 230.535156 220.828125 L 160.910156 220.828125 L 160.910156 183.429688 L 230.535156 183.429688 Z M 166.265625 215.484375 L 225.175781 215.484375 L 225.175781 188.773438 L 166.265625 188.773438 Z M 166.265625 215.484375"/></g><g clip-path="url(#w)"><path fill="#A6A6A6" d="M 182.332031 220.828125 L 144.839844 220.828125 L 144.839844 151.371094 L 182.332031 151.371094 Z M 150.195312 215.484375 L 176.976562 215.484375 L 176.976562 156.714844 L 150.195312 156.714844 Z M 150.195312 215.484375"/></g><g clip-path="url(#x)"><path fill="#FFF" d="M 246.601562 220.828125 L 128.773438 220.828125 L 128.773438 139.40625 L 187.6875 91.828125 L 246.601562 139.40625 Z M 134.128906 215.484375 L 241.246094 215.484375 L 241.246094 141.941406 L 187.6875 98.691406 L 134.128906 141.941406 Z M 134.128906 215.484375"/></g></svg>